<svg id="Capa_1" data-name="Capa 1" xmlns="http://www.w3.org/2000/svg" viewBox="0 0 186 196"><defs><style>.cls-1,.cls-2{fill:#b21e28;}.cls-2{fill-rule:evenodd;}</style></defs><title>Logo</title><path class="cls-1" d="M108.21,29.71a1,1,0,0,0-1,1s0,0.08,0,.11a0.86,0.86,0,0,0,.05.26l-3.74.65s0.37-2.36.59-3.59a1,1,0,1,0-.29-0.29c-1.1.61-3.17,1.72-3.17,1.72s-0.23-2-.37-3.39h0a1,1,0,0,0,0-2.08,1.05,1.05,0,0,0-.28,0,1,1,0,0,0-.65.54,1,1,0,0,0-.11.46,1,1,0,0,0,.45.86c-0.94,1-2.28,2.43-2.28,2.43s-1.05-1.77-1.82-3a1,1,0,1,0-.82,0c-0.76,1.21-1.82,3-1.82,3s-1.34-1.4-2.28-2.43a1,1,0,0,0,.45-0.86A1,1,0,0,0,91,24.71a1,1,0,0,0-.65-0.54,1.07,1.07,0,0,0-.28,0,1,1,0,0,0,0,2.08h0c-0.15,1.38-.39,3.5-0.37,3.39s-2.08-1.11-3.17-1.72a1,1,0,1,0-.29.29c0.22,1.23.59,3.59,0.59,3.59l-3.74-.65a0.86,0.86,0,0,0,.05-0.26s0-.07,0-0.11a1,1,0,1,0-1,1,1,1,0,0,0,.63-0.21C84.22,33,86.43,35.22,87,35.77a12.21,12.21,0,0,1,16.4,0c0.56-.55,2.77-2.78,4.19-4.19a1,1,0,1,0,.63-1.87"/><polygon class="cls-2" points="93.82 104.13 96.48 104.13 96.48 107.11 99.3 107.11 99.3 109.76 96.48 109.76 96.48 116.64 93.82 116.64 93.82 109.76 91.06 109.76 91.06 107.11 93.82 107.11 93.82 104.13"/><path class="cls-2" d="M78.65,24.84C79,22.43,82.4,23,83.86,23.65a6.57,6.57,0,0,0,5.31.11c5.77-2.19,1.16-7.85-1.59-8.31-0.57-.09-0.06-0.71,1-0.19a9.26,9.26,0,0,0,1.63.75c-1.61-2.93-3.75-3.18-4.81-2-0.41.47-.25,1,0.61,1.77,4.12,3.63,0,4.9-3.4,4.85-4.44.38-7.59,2.43-7,9-2.38-4.44-13.33-6.5-15.82,2.6a15.69,15.69,0,0,0,.05,6.6c0.37,1-.93,2.2-2.44,2.38,1,1.06,2.17.92,3.2-.37-0.33,2.16.11,4.83-3.09,5.46-7.21.87-1.9,6.22,4.5,2.43a7,7,0,0,0,3.31-8c7.1,1,6.66-7.2,5.14-5.9-1.79,1.57-5.59,1.75-6.29-.59,6.64,3.25,6.79-3.91,4.82-1.84-2.87,3-6.61-1.63-2.7-3.62-1.52,2-.84,3.13.27,3.57s3.09-.43,2-1.79c-1.52-1.84,1.5-2.32,3.2-1.46,1.3,0.81,1.9,1.52,3.69,4.6,1-2.28,2.67-2.89,4.88-2.81C77.85,27.28,81,26.2,82,27.5c0.78,1,1.76.39,1.68-.7,0.06-3.25-3.09-3.63-5-2"/><path class="cls-2" d="M80.12,46.82c2.27-1.52,4.54-3,6.83-4.49A78,78,0,0,1,78,35.18c-0.33-.38-0.11-0.71.38-0.43,2.11,1.62,3.85,3,6,4.65h1.3c-0.06-.92,0-1.9,0-2.6C84.07,36.64,81.32,36,80.5,35s2.19-.64,1.25-1.84c-2.58-3.13-7.05.61-5,2.65,1.32,1.25,2.43,2.11,3.68,3.14a52.12,52.12,0,0,1-8.35-5c0.11,0.92.28,1.9,0.39,2.87,2.54,1.24,5.15,2.33,7.75,3.36,0.38,0.05.33,0.76,0,.76-2.5-1.68-5.21-2.22-6.88-1.73-2,.54-1.74,2.71-0.16,3.41,0.16,0.6-.76.38-1.8,0.05,0.39,2.33,3,1.52,2.83,1.95s-1.84.22-2.12,0.11c0.71,2,2.93,1.41,2.93,1.73S74.37,47,73.94,47a2.29,2.29,0,0,0,2.49.71c0.11-.06.43,0,0.22,0.16a1.13,1.13,0,0,1-.81.38,3.11,3.11,0,0,0,2.92-.38,1.74,1.74,0,0,0,.71-1.3,1.59,1.59,0,0,1-1.14.54A2,2,0,0,0,78,43.57a2.14,2.14,0,0,1-.54,1c-0.27.16-.38,0.22-0.27-0.11,0.17-.71.33-1.84-0.81-2.27a1.35,1.35,0,0,1-.49,1.24c-0.16.06-.32,0.06-0.27-0.05,0.16-.44.92-2-0.32-2.28a1.1,1.1,0,0,1-1.09,1c-2.55-2.92,3.69-2.87,3.36-1.41L76.76,41c0.76,0.81,1.57,1.73,2.33,2.6,1.2-.44,2.34-1,3.52-1.41a8.27,8.27,0,0,0,.71.76c-1,.54-2.12,1.14-3.15,1.68,0.05,0.81,0,1.36,0,2.17"/><path class="cls-2" d="M71.71,62.84a23.7,23.7,0,0,1,1.85-6.39C73,56,72.31,55.64,71.77,55.2L74,55.51a16.13,16.13,0,0,1,3.21-5c0-.05-2.47-0.34-8.62,1.19,4.12-1.51,4-4.11,3.08-5.24-1.59-1.89-4.33.28-4.33,0.28a1.14,1.14,0,0,1,.57-1.09,2.91,2.91,0,0,1,2.2-.28,2.74,2.74,0,0,0-4.28.87c-0.82,1.62.54,4.29,3,2.76-0.82-1.4.2-2,1-1.9s1.34,1,.54,2.06c-1.3,1.84-4.68,2-7.59,2.27-7.8,1-11.55,13.75.65,14.94-3.74-1.94-3.74-7.9.32-8,2.22,0,3.64,2.87,1,3.74,0.89-.82.65-2.42-0.49-2.49-4.46-.12-2.17,8.21,2.88,5.14,8-5.9-5-15.15-8.24-5.41-0.58-5.38,11.54-9.79,12.79,3.52"/><path class="cls-2" d="M48.62,84.7c-1.41-2.27-.39-6,2.22-6s2.42,3.73.54,3.46c-1.53-.21-3.31.92-2.76,2.54"/><path class="cls-2" d="M50,73.93c1.14-2.71,3-3.79,5.36-3.79a3.93,3.93,0,0,1,3.53,1.74c2.58,4-2.32,7.86-5.37,2-0.75-1.22-2.17-.7-3.53.05"/><path class="cls-2" d="M48.24,78.16a3.55,3.55,0,0,1,2.71-3.84,2.19,2.19,0,0,1,2.28.75c1.68,2.17-1.25,4.82-2.77,1.84C50,76,48.84,76.75,48.24,78.16"/><path class="cls-2" d="M65.42,74.21c-0.92-1.68-2.18-2.25-3.31-2.06a1.92,1.92,0,0,0-1.63,1.19c-0.7,2.22,1.9,2.87,2.55,1,0.27-.86,1.52-0.93,2.39-0.11"/><path class="cls-2" d="M89,107c2.82-14.5-10.63-10.35-15.57-25.13a8.62,8.62,0,0,0,.43,6.23,1.87,1.87,0,0,1-.76-0.81,46.7,46.7,0,0,1-2.77-11.91c-0.54-.65-3.25-1.3-3,0.06,0.81,4.93,1.26,7.62,1.45,9.35,0.07,0.63-1.41-4.95-2.27-8.49-0.6-2.19-4.28-2-3.47.65,0.82,2.38,1.41,3.4,2.23,5.74-1.22-2-2.54-3.72-3.15-6.12a2.62,2.62,0,0,1-2.05-.16c-0.24-.13-0.11.64,0.25,1.73,0.79,2.24,2.08,3.41,3.6,5.25-1.79-1.24-4.06-3.74-4.61-6a5.44,5.44,0,0,1-4,.43c1.19,3,3.53,4.63,6.35,6.69,0.49,0.38,1.78,1.39,2.21,1.81-3.63-1.73-7.31-3.73-9.59-8.93a2.72,2.72,0,0,1-1.47,1.73,4.84,4.84,0,0,1,.27,3.73c1.74,2.65,7.81,4,10.41,4.54,0.17,0.06-6.88.06-11.17-4.22-1.42-1.31-4,.79-2.66,2.71,1.68,2.54,5.76,3,13.34,2.76,0,0.27-17.29.94-18.76,0.92-1.12,0-.3,4.15,2.38,3.82a51.92,51.92,0,0,0,9.56-1.71c1.14-.25-3.8,1.62-8.36,2.48,0.11,1.46,3.26,2.55,6,1.52,3.46-1.24,8.48-5.38,10.84-4.22A9,9,0,0,0,60.49,93c-2.9,1.89-6.34,4-6.56,4.11,3.31,5.14,6.41-1.3,11.82-3.89,1.35-.67,2.53-0.9,1.84-0.6-14.8,7.36-1.84,17.43,2.22,8.82-5,2.27-6.94-1.57-4.6-4.82-1.41,5.2,3.12,5.59,4.91,3.7-5.42-2.38-.65-7.44,3.51-7.69,3.47-.1,4.84,3.47,2.65,5.15-0.31.3,1.72-2.45-.61-3.48-2-.86-2.91-0.4-4,0.54-2.92,2.54.35,9.84,5.17,7.31,3-1.69,5.16-2.71,7.8-1.41a10.13,10.13,0,0,0-7.53,2.49c-1.47,1.44.05,4.3,3,2.06,1.65-1.33,8.66-5.31,7.26.1-0.28,1.08-2.83,1.9-.44,3C88.45,109,88.85,108,89,107"/><path class="cls-2" d="M91.61,42.76a1.35,1.35,0,1,1,0,2.7,1.35,1.35,0,1,1,0-2.7"/><path class="cls-2" d="M88.09,43.84a1.39,1.39,0,0,1,1.35,1.41,1.34,1.34,0,0,1-1.35,1.35,1.39,1.39,0,0,1-1.42-1.35,1.44,1.44,0,0,1,1.42-1.41"/><path class="cls-2" d="M84.84,45.63A1.38,1.38,0,0,1,86.2,47a1.38,1.38,0,1,1-2.77,0,1.38,1.38,0,0,1,1.41-1.35"/><path class="cls-2" d="M82,47.9a1.39,1.39,0,0,1,1.36,1.41A1.34,1.34,0,0,1,82,50.66a1.39,1.39,0,0,1-1.41-1.35A1.44,1.44,0,0,1,82,47.9"/><path class="cls-2" d="M79.52,50.61A1.43,1.43,0,0,1,80.93,52a1.38,1.38,0,0,1-1.41,1.35A1.34,1.34,0,0,1,78.16,52a1.39,1.39,0,0,1,1.36-1.41"/><path class="cls-2" d="M77.52,53.75a1.43,1.43,0,0,1,1.35,1.41,1.38,1.38,0,0,1-2.76,0,1.44,1.44,0,0,1,1.41-1.41"/><path class="cls-2" d="M75.95,57a1.43,1.43,0,0,1,1.41,1.41,1.38,1.38,0,0,1-1.41,1.35,1.34,1.34,0,0,1-1.36-1.35A1.39,1.39,0,0,1,75.95,57"/><path class="cls-2" d="M74.81,60.57A1.39,1.39,0,0,1,76.16,62a1.34,1.34,0,0,1-1.36,1.35A1.39,1.39,0,0,1,73.4,62a1.43,1.43,0,0,1,1.41-1.41"/><path class="cls-2" d="M74.16,64.24A1.35,1.35,0,1,1,72.8,65.6a1.35,1.35,0,0,1,1.36-1.36"/><path class="cls-2" d="M91.61,93.26A1.34,1.34,0,0,1,93,94.61,1.39,1.39,0,0,1,91.61,96a1.44,1.44,0,0,1-1.41-1.41,1.39,1.39,0,0,1,1.41-1.35"/><path class="cls-2" d="M88.09,92.12a1.35,1.35,0,1,1,0,2.7,1.35,1.35,0,1,1,0-2.7"/><path class="cls-2" d="M84.84,90.33a1.43,1.43,0,0,1,1.36,1.41,1.38,1.38,0,0,1-2.77,0,1.43,1.43,0,0,1,1.41-1.41"/><path class="cls-2" d="M82,88a1.34,1.34,0,0,1,1.36,1.35A1.39,1.39,0,0,1,82,90.76a1.43,1.43,0,0,1-1.41-1.4A1.38,1.38,0,0,1,82,88"/><path class="cls-2" d="M79.52,85.08a1.38,1.38,0,0,1,1.35,1.41,1.34,1.34,0,0,1-1.35,1.35,1.39,1.39,0,0,1-1.41-1.35,1.43,1.43,0,0,1,1.41-1.41"/><path class="cls-2" d="M77.52,82a1.35,1.35,0,1,1,0,2.7,1.35,1.35,0,1,1,0-2.7"/><path class="cls-2" d="M75.95,78.86a1.39,1.39,0,0,1,1.41,1.35,1.35,1.35,0,0,1-1.41,1.3,1.3,1.3,0,0,1-1.36-1.3,1.34,1.34,0,0,1,1.36-1.35"/><path class="cls-2" d="M74.81,75.28a1.34,1.34,0,0,1,1.36,1.36A1.39,1.39,0,0,1,74.81,78a1.43,1.43,0,0,1-1.41-1.4,1.39,1.39,0,0,1,1.41-1.36"/><path class="cls-2" d="M74.16,71.61A1.39,1.39,0,0,1,75.51,73a1.36,1.36,0,0,1-2.71,0,1.39,1.39,0,0,1,1.36-1.41"/><path class="cls-2" d="M98.55,42.76a1.35,1.35,0,1,0,1.36,1.35,1.34,1.34,0,0,0-1.36-1.35"/><path class="cls-2" d="M102.08,43.84a1.39,1.39,0,0,0-1.36,1.41,1.36,1.36,0,0,0,2.72,0,1.39,1.39,0,0,0-1.36-1.41"/><path class="cls-2" d="M105.33,45.63A1.34,1.34,0,0,0,104,47a1.36,1.36,0,1,0,2.71,0,1.34,1.34,0,0,0-1.35-1.35"/><path class="cls-2" d="M108.2,47.9a1.39,1.39,0,0,0-1.36,1.41,1.36,1.36,0,0,0,2.71,0,1.39,1.39,0,0,0-1.35-1.41"/><path class="cls-2" d="M110.59,50.61A1.39,1.39,0,0,0,109.23,52a1.34,1.34,0,0,0,1.36,1.35A1.39,1.39,0,0,0,112,52a1.44,1.44,0,0,0-1.41-1.41"/><path class="cls-2" d="M112.65,53.75a1.39,1.39,0,0,0-1.36,1.41,1.36,1.36,0,0,0,2.71,0,1.39,1.39,0,0,0-1.35-1.41"/><path class="cls-2" d="M114.16,57a1.39,1.39,0,0,0-1.36,1.41,1.34,1.34,0,0,0,1.36,1.35,1.38,1.38,0,0,0,1.41-1.35A1.43,1.43,0,0,0,114.16,57"/><path class="cls-2" d="M115.36,60.57A1.39,1.39,0,0,0,114,62a1.36,1.36,0,0,0,2.71,0,1.39,1.39,0,0,0-1.36-1.41"/><path class="cls-2" d="M116,64.24a1.35,1.35,0,1,0,0,2.7,1.35,1.35,0,0,0,0-2.7"/><path class="cls-2" d="M98.55,93.26a1.34,1.34,0,0,0-1.35,1.35,1.35,1.35,0,1,0,2.71,0,1.34,1.34,0,0,0-1.36-1.35"/><path class="cls-2" d="M102.08,92.12a1.35,1.35,0,1,0,1.36,1.35,1.34,1.34,0,0,0-1.36-1.35"/><path class="cls-2" d="M105.33,90.33A1.39,1.39,0,0,0,104,91.74a1.36,1.36,0,0,0,2.71,0,1.39,1.39,0,0,0-1.35-1.41"/><path class="cls-2" d="M108.2,88a1.34,1.34,0,0,0-1.36,1.35,1.36,1.36,0,1,0,2.71,0A1.34,1.34,0,0,0,108.2,88"/><path class="cls-2" d="M110.64,85.08a1.39,1.39,0,0,0-1.35,1.41,1.35,1.35,0,0,0,2.71,0,1.39,1.39,0,0,0-1.36-1.41"/><path class="cls-2" d="M112.65,82A1.35,1.35,0,1,0,114,83.35,1.34,1.34,0,0,0,112.65,82"/><path class="cls-2" d="M114.16,78.86a1.34,1.34,0,0,0-1.36,1.35,1.3,1.3,0,0,0,1.36,1.3,1.34,1.34,0,0,0,1.41-1.3,1.39,1.39,0,0,0-1.41-1.35"/><path class="cls-2" d="M115.36,75.28A1.34,1.34,0,0,0,114,76.64a1.36,1.36,0,1,0,2.71,0,1.34,1.34,0,0,0-1.36-1.36"/><path class="cls-2" d="M116,71.61A1.43,1.43,0,0,0,114.6,73,1.39,1.39,0,0,0,116,74.37,1.34,1.34,0,0,0,117.36,73,1.38,1.38,0,0,0,116,71.61"/><path class="cls-1" d="M94,60.75a1.48,1.48,0,0,0-1.31-1.32c-1.47-.09-1,2.15-1.84.38s-0.33-5.17,2.89-4.39c0,0,0,0,0-.05a6.69,6.69,0,0,1,1.24-9l0.15-.12c-6.67.05-10.78,4.11-13.34,7.25L94.08,68.13V61.51c0-.19,0-0.45,0-0.76"/><path class="cls-2" d="M94.09,68.14H88.78c-2.85,0-1.78-2.91-.65-3.52-0.87-1.68-4.72-1.35-3.8,3.09-3.36-3.19-6.72-.81-7.69,1.52H94.09V68.14Z"/><path class="cls-1" d="M88.13,73.84c-0.87,1.68-4.72,1.35-3.8-3.09-3.36,3.19-6.72.81-7.69-1.52-0.33,6,2.92,13.49,5.31,15.87L94.09,70.32H88.78c-2.85,0-1.78,2.91-.65,3.52"/><path class="cls-2" d="M96.27,69.23v-8a1.59,1.59,0,0,1,1.35-1.84c1.47-.09,1,2.15,1.84.38s0.32-5.19-2.93-4.38a6.7,6.7,0,0,0-1.36-9.2v23h1.09Z"/><path class="cls-1" d="M96.33,77.71A1.48,1.48,0,0,0,97.64,79c1.47,0.09,1-2.15,1.84-.38s0.33,5.17-2.89,4.39c0,0,0,0,0,0a6.69,6.69,0,0,1-1.24,9l-0.15.12c6.67-.05,10.78-4.11,13.34-7.25L96.28,70.33V77c0,0.19,0,.45,0,0.76"/><path class="cls-2" d="M96.27,70.32h5.31c2.85,0,1.78,2.91.65,3.52,0.87,1.68,4.72,1.35,3.8-3.09,3.36,3.19,6.72.81,7.69-1.52H96.27v1.09Z"/><path class="cls-1" d="M102.23,64.62c0.87-1.68,4.72-1.35,3.8,3.09,3.36-3.19,6.72-.81,7.69,1.52,0.33-6-2.92-13.49-5.31-15.87L96.27,68.14h5.32c2.85,0,1.78-2.91.65-3.52"/><path class="cls-2" d="M94.09,69.23v8A1.59,1.59,0,0,1,92.74,79c-1.47.09-1-2.15-1.84-.38S90.57,83.85,93.83,83a6.7,6.7,0,0,0,1.36,9.2v-23H94.09Z"/><path class="cls-1" d="M96.62,38.19c0-1.57-.47-2.72-1.44-3.14-1,.42-1.48,1.57-1.44,3.14a2.53,2.53,0,0,0-2.25,4c0.91-1.49,2.25-1.13,2.25.15s0,1.74,0,2.88h2.88c0-1.14,0-1.63,0-2.88s1.34-1.64,2.25-.15a2.53,2.53,0,0,0-2.25-4"/><path class="cls-1" d="M67.75,67.85c-1.57,0-2.72.47-3.14,1.44,0.42,1,1.57,1.48,3.14,1.44a2.53,2.53,0,0,0,4,2.25c-1.49-.91-1.13-2.27.15-2.27s2.2,0,3.33,0V67.85c-1.13,0-2.08,0-3.33,0s-1.64-1.34-.15-2.25a2.53,2.53,0,0,0-4,2.25"/><path class="cls-1" d="M122.36,70.73c1.57,0,2.72-.46,3.14-1.44-0.42-1-1.57-1.48-3.14-1.44a2.53,2.53,0,0,0-4-2.25c1.49,0.91,1.13,2.27-.15,2.27h-3.33v2.85h3.33c1.28,0,1.64,1.34.15,2.25a2.53,2.53,0,0,0,4-2.25"/><path class="cls-1" d="M93.74,100.5c0,1.57.46,2.72,1.44,3.14,1-.42,1.48-1.57,1.44-3.14a2.53,2.53,0,0,0,2.25-4C98,98,96.6,97.63,96.6,96.35s0-1.74,0-2.88H93.74c0,1.14,0,1.63,0,2.88s-1.34,1.64-2.25.15a2.53,2.53,0,0,0,2.25,4"/><path class="cls-2" d="M95.19,34.41a10.1,10.1,0,0,1,6.89,2.67l0.81-.81a11.46,11.46,0,0,0-15.4,0l0.81,0.81a10.1,10.1,0,0,1,6.89-2.67"/><path class="cls-2" d="M95.19,34.41a10.1,10.1,0,0,0-6.9,2.67l-0.81-.81a11.46,11.46,0,0,1,15.4,0l-0.81.81a10.1,10.1,0,0,0-6.89-2.67"/><path class="cls-2" d="M111.73,24.84c-0.35-2.41-3.75-1.81-5.21-1.19a6.57,6.57,0,0,1-5.31.11c-5.77-2.19-1.16-7.85,1.59-8.31,0.57-.09.06-0.71-1-0.19a9.26,9.26,0,0,1-1.63.75c1.61-2.93,3.75-3.18,4.81-2,0.41,0.47.25,1-.61,1.77-4.12,3.63,0,4.9,3.4,4.85,4.44,0.38,7.59,2.43,7,9,2.38-4.44,13.33-6.5,15.82,2.6a15.69,15.69,0,0,1-.05,6.6c-0.37,1,.93,2.2,2.44,2.38-1,1.06-2.17.92-3.2-.37,0.33,2.16-.11,4.83,3.09,5.46,7.21,0.87,1.9,6.22-4.5,2.43a7,7,0,0,1-3.31-8c-7.1,1-6.66-7.2-5.14-5.9,1.79,1.57,5.59,1.75,6.29-.59-6.64,3.25-6.79-3.91-4.82-1.84,2.87,3,6.61-1.63,2.7-3.62,1.52,2,.84,3.13-0.27,3.57s-3.09-.43-2-1.79c1.52-1.84-1.5-2.32-3.2-1.46-1.3.81-1.9,1.52-3.69,4.6-1-2.28-2.67-2.89-4.88-2.81,2.54-3.68-.6-4.77-1.57-3.46-0.78,1-1.76.39-1.68-.7-0.06-3.25,3.09-3.63,5-2"/><path class="cls-2" d="M110.26,46.82c-2.27-1.52-4.54-3-6.83-4.49a78,78,0,0,0,8.94-7.14c0.33-.38.11-0.71-0.37-0.43-2.11,1.62-3.85,3-6,4.65h-1.3c0.06-.92,0-1.9,0-2.6,1.58-.16,4.33-0.82,5.16-1.79s-2.19-.64-1.25-1.84c2.58-3.13,7.05.61,5,2.65-1.32,1.25-2.43,2.11-3.68,3.14a52.12,52.12,0,0,0,8.35-5c-0.11.92-.28,1.9-0.39,2.87-2.54,1.24-5.15,2.33-7.75,3.36-0.38.05-.33,0.76,0,0.76,2.5-1.68,5.21-2.22,6.88-1.73,2,0.54,1.74,2.71.16,3.41C117,43.25,118,43,119,42.7c-0.39,2.33-3,1.52-2.83,1.95s1.84,0.22,2.12.11c-0.71,2-2.93,1.41-2.93,1.73S116,47,116.44,47a2.29,2.29,0,0,1-2.49.71c-0.11-.06-0.43,0-0.22.16a1.12,1.12,0,0,0,.81.38,3.11,3.11,0,0,1-2.92-.38,1.74,1.74,0,0,1-.71-1.3,1.59,1.59,0,0,0,1.14.54,2,2,0,0,1,.32-3.57,2.13,2.13,0,0,0,.55,1c0.27,0.16.38,0.22,0.27-.11-0.17-.71-0.33-1.84.81-2.27a1.35,1.35,0,0,0,.49,1.24c0.16,0.06.32,0.06,0.27-.05-0.16-.44-0.92-2,0.32-2.28a1.1,1.1,0,0,0,1.09,1c2.55-2.92-3.69-2.87-3.36-1.41L113.62,41c-0.76.81-1.57,1.73-2.33,2.6-1.2-.44-2.34-1-3.52-1.41a8.27,8.27,0,0,1-.71.76c1,0.54,2.12,1.14,3.15,1.68-0.05.81,0.05,1.36,0.05,2.17"/><path class="cls-2" d="M118.67,62.84a23.7,23.7,0,0,0-1.85-6.39c0.55-.43,1.25-0.81,1.79-1.24l-2.27.3a16.15,16.15,0,0,0-3.21-5c0-.05,2.46-0.34,8.62,1.19-4.12-1.51-4-4.11-3.08-5.24,1.59-1.89,4.33.28,4.33,0.28a1.14,1.14,0,0,0-.57-1.09,2.91,2.91,0,0,0-2.2-.28,2.74,2.74,0,0,1,4.28.87c0.82,1.62-.54,4.29-3,2.76,0.82-1.4-.2-2-1-1.9s-1.34,1-.54,2.06c1.3,1.84,4.68,2,7.59,2.27,7.8,1,11.55,13.75-.65,14.94,3.74-1.94,3.74-7.9-.32-8-2.22,0-3.64,2.87-1,3.74-0.89-.82-0.65-2.42.49-2.49,4.46-.12,2.17,8.21-2.88,5.14-8-5.9,5-15.15,8.24-5.41,0.58-5.38-11.54-9.79-12.79,3.52"/><path class="cls-2" d="M141.76,84.7c1.41-2.27.39-6-2.22-6s-2.42,3.73-.54,3.46c1.53-.21,3.31.92,2.76,2.54"/><path class="cls-2" d="M140.35,73.93c-1.14-2.71-3-3.79-5.37-3.79a3.93,3.93,0,0,0-3.53,1.74c-2.58,4,2.32,7.86,5.37,2,0.75-1.22,2.17-.7,3.53.05"/><path class="cls-2" d="M142.14,78.16a3.55,3.55,0,0,0-2.71-3.84,2.19,2.19,0,0,0-2.28.75c-1.68,2.17,1.25,4.82,2.77,1.84,0.44-.87,1.63-0.16,2.23,1.25"/><path class="cls-2" d="M125,74.21c0.92-1.68,2.18-2.25,3.31-2.06a1.92,1.92,0,0,1,1.63,1.19c0.7,2.22-1.9,2.87-2.55,1-0.27-.86-1.52-0.93-2.39-0.11"/><path class="cls-2" d="M101.37,107C98.55,92.51,112,96.66,116.93,81.89a8.61,8.61,0,0,1-.43,6.23,1.87,1.87,0,0,0,.76-0.81A46.7,46.7,0,0,0,120,75.39c0.55-.65,3.25-1.3,3,0.06-0.81,4.93-1.26,7.62-1.45,9.35-0.07.63,1.4-4.95,2.27-8.49,0.6-2.19,4.28-2,3.47.65-0.82,2.38-1.41,3.4-2.23,5.74,1.22-2,2.54-3.72,3.15-6.12a2.61,2.61,0,0,0,2.05-.16c0.24-.13.12,0.64-0.25,1.73-0.79,2.24-2.08,3.41-3.6,5.25,1.79-1.24,4.06-3.74,4.61-6a5.44,5.44,0,0,0,4,.43c-1.19,3-3.53,4.63-6.35,6.69-0.49.38-1.78,1.39-2.21,1.81,3.63-1.73,7.31-3.73,9.59-8.93a2.71,2.71,0,0,0,1.47,1.73,4.84,4.84,0,0,0-.27,3.73c-1.74,2.65-7.81,4-10.41,4.54-0.17.06,6.88,0.06,11.17-4.22,1.42-1.31,4,.79,2.65,2.71-1.68,2.54-5.76,3-13.34,2.76,0,0.27,17.29.94,18.77,0.92,1.12,0,.3,4.15-2.37,3.82a51.92,51.92,0,0,1-9.56-1.71c-1.14-.25,3.8,1.62,8.36,2.48-0.11,1.46-3.26,2.55-6,1.52-3.46-1.24-8.48-5.38-10.84-4.22A9,9,0,0,1,129.89,93c2.9,1.89,6.34,4,6.56,4.11-3.31,5.14-6.41-1.3-11.82-3.89-1.35-.67-2.53-0.9-1.84-0.6,14.8,7.36,1.84,17.43-2.22,8.82,5,2.27,6.94-1.57,4.6-4.82,1.41,5.2-3.12,5.59-4.91,3.7,5.42-2.38.65-7.44-3.51-7.69-3.47-.1-4.84,3.47-2.65,5.15,0.31,0.3-1.72-2.45.6-3.48,2-.86,2.91-0.4,4,0.54,2.92,2.54-.35,9.84-5.17,7.31-3-1.69-5.16-2.71-7.8-1.41a10.13,10.13,0,0,1,7.53,2.49c1.47,1.44,0,4.3-3,2.06-1.65-1.33-8.67-5.31-7.26.1,0.28,1.08,2.83,1.9.44,3-1.5.62-1.9-.41-2.06-1.39"/><path class="cls-1" d="M25.25,141c-5,0-6.18-2.75-6.18-5.8V124.78h3.08V135c0,2,.66,3.43,3.32,3.43,2.37,0,3.36-1,3.36-3.72v-10h3.06v9.78c0,4.38-2.42,6.47-6.63,6.47"/><path class="cls-1" d="M41.92,141v-7.79c0-1.23-.33-2-1.45-2-1.54,0-2.75,1.75-2.75,3.81V141h-3v-12.3h2.87a13.94,13.94,0,0,1-.17,2.35l0,0a4.3,4.3,0,0,1,4-2.37c2.65,0,3.51,1.71,3.51,3.77V141h-3Z"/><path class="cls-1" d="M49.27,127.48a1.84,1.84,0,1,1,1.9-1.85,1.88,1.88,0,0,1-1.9,1.85m-1.52,1.26h3V141h-3v-12.3Z"/><path class="cls-1" d="M59.45,141H56.37L52,128.73h3.32l1.87,5.57c0.28,0.81.57,1.75,0.78,2.61h0a24.58,24.58,0,0,1,.71-2.51l1.9-5.66h3.22Z"/><path class="cls-1" d="M74.21,135.37h-7.3c0,2.2,1.07,3.27,3.24,3.27a8.44,8.44,0,0,0,3.44-.73l0.28,2.35a11.72,11.72,0,0,1-4.22.78c-3.74,0-5.83-1.89-5.83-6,0-3.6,2-6.25,5.52-6.25s5,2.35,5,5.26a9.67,9.67,0,0,1-.09,1.38m-5-4.41a2.35,2.35,0,0,0-2.3,2.35h4.34a2,2,0,0,0-2-2.35"/><path class="cls-1" d="M82.66,131.72c-2.18-.45-3.27,1-3.27,4.24v5h-3V128.73h2.87a16.22,16.22,0,0,1-.21,2.63h0a3.75,3.75,0,0,1,3.74-2.63Z"/><path class="cls-1" d="M86.33,141a16,16,0,0,1-2.46-.24l0.07-2.49a10.37,10.37,0,0,0,2.53.36c1.16,0,1.92-.47,1.92-1.26,0-2.09-4.76-.9-4.76-4.9,0-2.06,1.68-3.77,5-3.77a13.62,13.62,0,0,1,2.16.21l-0.1,2.39a8.19,8.19,0,0,0-2.18-.31c-1.18,0-1.75.47-1.75,1.21,0,1.92,4.83,1.07,4.83,4.88,0,2.32-2,3.91-5.26,3.91"/><path class="cls-1" d="M95.21,127.48a1.84,1.84,0,1,1,1.9-1.85,1.88,1.88,0,0,1-1.9,1.85m-1.52,1.26h3V141h-3v-12.3Z"/><path class="cls-1" d="M106.63,141a18.61,18.61,0,0,1,.14-2.23h0A3.94,3.94,0,0,1,103,141c-2.87,0-4.29-2.15-4.29-5.52,0-4,2.32-6.77,6.23-6.77a11,11,0,0,1,1.49.14v-5.4h3V141h-2.82Zm-0.19-9.67a7.41,7.41,0,0,0-1.59-.19c-1.73,0-3,1.09-3,4,0,2.2.64,3.34,2,3.34,1.59,0,2.54-1.85,2.54-3.86v-3.29Z"/><path class="cls-1" d="M118.57,141a17.18,17.18,0,0,1,.12-2.25l0,0a4,4,0,0,1-3.77,2.27c-2.13,0-3.36-1.23-3.36-3.13,0-2.82,2.79-4.31,6.8-4.31V133c0-1.23-.59-1.87-2.3-1.87a7.73,7.73,0,0,0-3.48.92l-0.26-2.53a12.88,12.88,0,0,1,4.22-.74c3.79,0,4.86,1.54,4.86,4.1v4.9c0,0.95,0,2.32.07,3.29h-2.87Zm-0.24-5.47c-3.2,0-3.91.92-3.91,1.87a1.24,1.24,0,0,0,1.4,1.26,2.71,2.71,0,0,0,2.51-2.84v-0.29Z"/><path class="cls-1" d="M131.31,141a18.61,18.61,0,0,1,.14-2.23h0a3.94,3.94,0,0,1-3.72,2.23c-2.87,0-4.29-2.15-4.29-5.52,0-4,2.32-6.77,6.23-6.77a11,11,0,0,1,1.49.14v-5.4h3V141h-2.82Zm-0.19-9.67a7.41,7.41,0,0,0-1.59-.19c-1.73,0-3,1.09-3,4,0,2.2.64,3.34,2,3.34,1.59,0,2.54-1.85,2.54-3.86v-3.29Z"/><path class="cls-1" d="M150.69,141a18.23,18.23,0,0,1,.14-2.2h0a3.94,3.94,0,0,1-3.72,2.23c-2.87,0-4.29-2.15-4.29-5.52,0-4,2.32-6.77,6.23-6.77a11,11,0,0,1,1.49.14v-5.4h3V141h-2.82Zm-0.19-9.64a7.41,7.41,0,0,0-1.59-.19c-1.73,0-3,1.09-3,4,0,2.2.64,3.34,2,3.34,1.59,0,2.54-1.85,2.54-3.86v-3.29Z"/><path class="cls-1" d="M166.13,135.37h-7.3c0,2.2,1.07,3.27,3.24,3.27a8.43,8.43,0,0,0,3.44-.73l0.28,2.35a11.72,11.72,0,0,1-4.22.78c-3.74,0-5.83-1.89-5.83-6,0-3.6,2-6.25,5.52-6.25s5,2.35,5,5.26a10,10,0,0,1-.09,1.38m-5-4.41a2.35,2.35,0,0,0-2.3,2.35h4.34a2,2,0,0,0-2-2.35"/><rect class="cls-1" x="168.28" y="123.48" width="3.03" height="17.55"/><path class="cls-1" d="M35.85,184.21l-9.92-14.71H25.68v14.71H19.07V149.35c2.7-.15,5.9-0.21,9.87-0.21,7.58,0,12.47,2.65,12.47,9.67,0,5.09-3.56,8.75-8.75,9.57,1,1.27,1.93,2.6,2.8,3.77L44,184.21H35.85Zm-7.57-29.67a18.35,18.35,0,0,0-2.6.16v9.92c0.46,0.05,1.37.1,2.39,0.1,4,0,6.41-2,6.41-5.24s-2-4.94-6.21-4.94"/><path class="cls-1" d="M55.86,184.21c-7.18,0-11.81-3.72-11.81-12.72C44,163.6,49.29,157.9,57,157.9c7.17,0,11.81,4,11.81,12.68,0,7.94-5.34,13.64-12.93,13.64m0.66-20.82c-2.9,0-5.75,2.24-5.75,7.43s1.88,7.84,5.65,7.84c3.21,0,5.65-2.6,5.65-7.74,0-4.89-1.73-7.53-5.55-7.53"/><path class="cls-1" d="M77.38,184.21a34.51,34.51,0,0,1-5.29-.46l0.15-5.34a22.28,22.28,0,0,0,5.45.76c2.49,0,4.12-1,4.12-2.7,0-4.48-10.23-1.93-10.23-10.54,0-4.43,3.61-8.09,10.74-8.09a29.28,29.28,0,0,1,4.63.46l-0.2,5.14a17.62,17.62,0,0,0-4.68-.66c-2.54,0-3.77,1-3.77,2.6,0,4.12,10.38,2.29,10.38,10.49,0,5-4.38,8.35-11.3,8.35"/><path class="cls-1" d="M106.74,184.21a36.16,36.16,0,0,1,.26-4.78l-0.05-.05a8.58,8.58,0,0,1-8.09,4.83c-4.58,0-7.23-2.6-7.23-6.67,0-6.06,6-9.26,14.61-9.26v-1.37c0-2.65-1.27-4-4.94-4a16.61,16.61,0,0,0-7.48,2l-0.56-5.45a27.71,27.71,0,0,1,9.06-1.58c8.14,0,10.43,3.31,10.43,8.81v10.53c0,2,0,4.94.15,7h-6.16Zm-0.51-11.71c-6.87,0-8.4,2-8.4,4,0,1.63,1.12,2.7,3,2.7,3.21,0,5.4-3.05,5.4-6.11v-0.61Z"/><path class="cls-1" d="M132.38,164.26c-4.68-1-7,2.09-7,9.11v10.84h-6.52V157.85H125a34.84,34.84,0,0,1-.46,5.65h0.1c1.22-3.21,3.66-6,8-5.65Z"/><path class="cls-1" d="M139.15,155.15a3.95,3.95,0,1,1,4.07-4,4,4,0,0,1-4.07,4m-3.26,2.7h6.51v26.36h-6.51V157.85Z"/><path class="cls-1" d="M158.38,184.21c-7.18,0-11.81-3.72-11.81-12.72,0-7.89,5.24-13.59,12.93-13.59,7.18,0,11.81,4,11.81,12.68,0,7.94-5.34,13.64-12.93,13.64M159,163.4c-2.9,0-5.75,2.24-5.75,7.43s1.88,7.84,5.65,7.84c3.21,0,5.65-2.6,5.65-7.74,0-4.89-1.73-7.53-5.55-7.53"/></svg>