<svg id="Capa_1" data-name="Capa 1" xmlns="http://www.w3.org/2000/svg" viewBox="0 0 186.55 174.11"><defs><style>.cls-1{fill:#1a2a35;}.cls-2{fill:#383838;}.cls-3{font-size:22.65px;}.cls-16,.cls-3,.cls-4,.cls-5,.cls-6{fill:#b21e28;}.cls-17,.cls-3,.cls-4,.cls-5,.cls-6{font-family:Calibri-Bold, Calibri;font-weight:700;}.cls-4{font-size:22.65px;}.cls-5{font-size:22.72px;}.cls-6{font-size:22.67px;}.cls-7{fill:#5d5d5d;opacity:0.3;}.cls-11,.cls-14,.cls-17,.cls-8{fill:#fff;}.cls-9{fill:#bebebf;}.cls-10{fill:#f7f8f9;}.cls-11,.cls-12{stroke:#000;}.cls-11,.cls-14{stroke-linecap:square;stroke-linejoin:round;}.cls-12,.cls-15{fill:none;stroke-width:7.09px;}.cls-13{fill:#0a4a66;}.cls-14{stroke:#260004;}.cls-15{stroke:#999;}.cls-17{isolation:isolate;font-size:32.94px;}</style></defs><title>logo_revistas</title><path class="cls-1" d="M161.6,62.52l.38-.45c.52,1,1,2.05,1.48,3.1h-.64l-1.22.17Z"/><path class="cls-1" d="M151.6,50.52V47.41q1.63,1.72,3.13,3.56l-1.24,1.85h-4.34l-.27-.9Z"/><polygon class="cls-1" points="68.6 42.86 68.6 42.79 69.79 42.79 69.91 41.79 72.6 41.79 72.6 43.25 71.52 43.79 68.41 43.79 68.6 42.86"/><path class="cls-1" d="M70.86,45.94a6.34,6.34,0,0,1,1.74-.24v1.38l-3.35.2-.59-.71Z"/><polygon class="cls-1" points="74.25 53.17 75.91 52.38 77.41 52.74 76.89 54.74 75.27 55.25 74.25 53.17"/><polygon class="cls-1" points="82.6 57.77 82.6 58.77 79.26 58.77 77.84 58.59 78.19 57.59 80 56.77 82.6 56.77 82.6 57.77"/><polygon class="cls-1" points="84.6 59.77 84.6 61 83.72 61.61 82.6 61.83 82.6 59.83 84.6 59.77"/><polygon class="cls-1" points="83.72 59.21 83.72 57.7 85 58.89 83.72 59.21"/><polygon class="cls-1" points="84.6 62.21 84.6 63.44 83.41 64.74 81.41 64.74 81.72 63.17 82.72 62.99 83.06 62.47 84.6 62.21"/><polygon class="cls-1" points="79.3 59.74 81.39 59.74 78.71 63.46 77.6 62.85 77.84 61.29 79.3 59.74"/><polygon class="cls-1" points="87.6 61.74 87.6 62.74 85.85 62.74 85.6 62.21 85.6 60.77 85.46 60.77 87.6 61.74"/><polygon class="cls-1" points="86 60.12 86.57 59.52 87.57 60.12 86.8 60.76 86 60.12"/><path class="cls-1" d="M167,76.48l.2-.23c.08.36.17.71.25,1.08Z"/><path class="cls-2" d="M16.38,77.41a57.13,57.13,0,0,1,1.49-5.77q.33-1.1.63-2.19a20.58,20.58,0,0,1,1-2.78c.19-.47.38-.94.55-1.41l1.62-4.09c.47-.9.92-1.81,1.37-2.71.87-1.74,1.69-3.39,2.59-4.94L27.83,50l.63-1a20.67,20.67,0,0,1,1.46-2.17c.63-.82,1.2-1.58,1.76-2.33,1-1.38,2-2.68,3-3.86l4.76-5.26c1-1,2.13-2,3.18-3L44.12,31a38,38,0,0,1,3.65-3.08l4.51-3.49,4-2.59,1-.64,1.58,2.55-1.1.65c-1.14.67-2.54,1.49-4.1,2.45l-.16.11-4.22,3a35.22,35.22,0,0,0-3.76,2.93L41,36.74l-.17.16-4.69,4.77C35,42.87,34,44.11,33,45.32c-.56.69-1.12,1.38-1.71,2.08a21.66,21.66,0,0,0-1.82,2.44l-.59.86L26.6,54c-1,1.57-1.88,3.15-2.73,4.68-.48.88-1,1.76-1.48,2.64l-.14.27-1.73,3.89L20,66.68a22.48,22.48,0,0,0-1.26,3.2c-.19.59-.43,1.28-.66,2A56.8,56.8,0,0,0,16.38,77.41Z"/><text class="cls-3" transform="matrix(0.89, -0.19, 0.21, 0.98, 69.73, 21.63)">R</text><text class="cls-4" transform="matrix(0.9, -0.13, 0.14, 0.99, 80.5, 19.32)">e</text><text class="cls-5" transform="matrix(0.9, -0.07, 0.08, 1, 90.45, 17.89)">v</text><text class="cls-6" transform="matrix(0.91, -0.03, 0.04, 1, 99.96, 17.16)">i</text><text class="cls-3" transform="translate(104.88 16.94) scale(0.91 1)">s</text><text class="cls-3" transform="translate(112.69 16.94) rotate(2.51) scale(0.91 1)">t</text><text class="cls-3" transform="translate(119.42 17.18) rotate(5.43) scale(0.91 1)">a</text><text class="cls-3" transform="translate(129.3 18.14) rotate(8.76) scale(0.91 1)">s</text><path class="cls-7" d="M57.11,16l-2,1.27c-1.27.84-3.14,2-5.53,3.61l-4,3.06A47.57,47.57,0,0,0,41.1,27.7c-1.5,1.41-3.13,2.88-4.78,4.48l-4.87,5.39c-1.65,1.91-3.15,4.09-4.81,6.24a36.39,36.39,0,0,0-2.29,3.46L22.17,50.9c-1.46,2.5-2.69,5.21-4.09,7.9l-1.7,4.28a40.73,40.73,0,0,0-1.6,4.4,73.76,73.76,0,0,0-2.36,9.32c-.28,1.6-.64,3.19-.84,4.82s-.28,3.28-.42,4.93C11.11,87.38,11,88.2,11,89v2.5c.05,1.67,0,3.34.15,5l.65,5a22.83,22.83,0,0,0,.38,2.48l.6,2.44c.43,1.62.74,3.27,1.26,4.86l1.74,4.7a29.47,29.47,0,0,0,2.06,4.53c.78,1.49,1.44,2.9,2.31,4.44l2.59,4c1,1.31,2,2.6,3,3.89a65.91,65.91,0,0,0,6.55,6.84A69.85,69.85,0,0,0,46.92,149.8a79.48,79.48,0,0,0,14.82,5.64c2.4.52,4.66,1.17,6.87,1.46l3.22.52,3.06.3c.78.07,1.54.16,2.28.21h.59l2.68.08,2.46.07,2.24-.08c1.42-.06,2.69-.07,3.79-.16l2.79-.28,2.32-.23-2.33.13-2.79.16c-1.1.06-2.37,0-3.78,0H82.91l-2.45-.17-2.65-.19c-.91-.08-1.86-.24-2.83-.36l-3-.42-3.17-.68c-2.17-.37-4.37-1.11-6.7-1.72A78,78,0,0,1,47.88,148,67.51,67.51,0,0,1,34.2,137.65a63.42,63.42,0,0,1-6-6.77l-2.6-3.71-2.41-4.11c-2.64-5.45-5.18-11.36-6.12-17.56l-.47-2.3a22.72,22.72,0,0,1-.25-2.33L16,96.21c0-1.56,0-3.11.06-4.66V89.24a22.48,22.48,0,0,1,.26-2.3q.29-2.29.57-4.55c.25-1.5.66-3,1-4.44a67.55,67.55,0,0,1,2.55-8.52,35.71,35.71,0,0,1,1.65-4l1.73-3.89c1.41-2.44,2.65-4.9,4.09-7.15l2.24-3.27A32.8,32.8,0,0,1,32.4,48c1.63-1.92,3.09-3.87,4.69-5.57l4.69-4.77,4.59-3.88a40.44,40.44,0,0,1,4.15-3.17l3.57-2.56c2.37-1.46,4.34-2.58,5.64-3.36l2-1.18-4.62-7.45ZM94,157.57Z"/><circle class="cls-8" cx="102.85" cy="92.11" r="66.21"/><path class="cls-1" d="M174.54,90.09c0-2-.12-4-.31-6a68.55,68.55,0,0,0-4.56-18.78c-.18-.44-.34-.89-.52-1.32a69,69,0,0,0-12.93-20l-1.08-1.12c-1-1.06-2.07-2.09-3.15-3.08a68.82,68.82,0,0,0-93.08.29A69.78,69.78,0,0,0,51,48.71a68.92,68.92,0,1,0,121.61,58.23c.33-1.35.61-2.71.85-4.09a69,69,0,0,0,1.08-12.06A5.45,5.45,0,0,0,174.54,90.09Z"/><path class="cls-9" d="M166,73.77h-5l-3.08-2.53-3.24.08v2.45h-1l-1.24-1-5.74-1.66V67.45l-7,.35-2.07,1h-2.82l-1.55.07L129.67,71v3.58l-6.83,5.07.75,2.18H125l-.37,2-1,.36-.05,5.55,6,7.07h2.63l.16-1h4.73l1.36-1h2.68l1.47,1.45,4,.4-.53,5.31,4.44,7.83-2.34,4.47.37,2.1,2.05,1.83v5.06l2,3.25v4.28h2.08a64,64,0,0,1-49.09,23.36A63.27,63.27,0,0,1,42.42,90.82,67.87,67.87,0,0,1,47.6,66V64l2.14-2.75c.79-1.48,1.57-2.93,2.47-4.34l.07,1.15-2.52,3.19c-.81,1.54-2.16,3.11-2.16,4.72v3.6l2,1.27v5l2.72,4.3,2.15.31L54.78,79l-2.39-3.69-.45-3.59h1.42l.6,3.69,3.5,5.08-.9,1.64,2.38,3.4,5.67,1.36V86l2.06.31-.29,1.58,1.7.32,2.66.73L74.5,93.3l4.83.37.47,3.95-3.3,2.31-.16,3.52-.47,2.16,4.79,6,.37,2.05s1.6.47,1.82.47,3.76,2.79,3.76,2.79v10.83l1.45.37-.83,5,2.24,2.95-.39,5L92,146.14l3.75,3.27,3.77.07.37-1.21-2.77-2.33.16-1.16.5-1.42.11-1.45L96,141.86l-.94-1.19,1.55-1.49.21-1.13-1.74-.5.1-1,2.47-.37,3.76-1.81,1.26-2.31,3.95-5-.9-3.95,1.21-2.1,3.63.11,2.44-1.93.79-7.62,2.71-3.44.47-2.21-2.47-.79-1.63-2.67-5.57-.06-4.42-1.68-.21-3.15L101.19,95l-4-.06L94.9,91.19l-2.05-1-.1,1.11L89,91.52l-1.37-1.9-3.89-.79-3.21,3.71-5-.86L75.13,86l-3.68-.63,1.48-2.79L72.5,81l-4.84,3.2-3-.37-1.09-2.38L64.19,79l1.68-3.09,3.87-2H77.2v2.28l2.68,1.25-.21-3.89L81.6,71.6,85.5,69l.27-1.8,3.89-4L93.8,60.9l-.37-.3L96.22,58l1,.27.47.59,1.06-1.18.26-.12-1.22-.16L96.6,57V55.85l.73-.08H98.7l.63.06.57,1,.69-.21v-.1l.17.07,1.93-.3v-1l.87.28v1L103,57.77h0l.15.92,3.51,1h0l.81-.09.05-1.54-2.79-1.27-.16-.74,2.31-.79L107,53l-2.42-1.47L104.47,48l-3.31,1.79H100l.32-3-4.66-1.15-2,1.33v4.3l-3.21,1.06L89,55.11l-1.45.24V51.76l-3.09-.44L83,50.3,82.35,48,88,44.67l2.76-.84L91,45.69l1.54-.08.12-.93,1.61-.23v-.33l-.69-.29-.16-1,2-.17,1.19-1.24.07-.09h0L97.1,41l4.16-.52L103.1,42l-4.82,2.57,6.13,1.34.79-2.16h2.68l.78-1.68-2.07-.37V39.46l-5.77-2.63-4,.47-2.27,1.21.18,2.94-2.41-.37-.37-1.63,2.32-2.1-4.21-.21-1.21.37-.52,1.42,1.58.27-.31,1.58-2.68.16-.42,1L82.61,42a10.66,10.66,0,0,0-.26-2.21l3,0,2.32-2.26L86.4,36.9l-1.68,1.63L82,38.24l-1.68-2.48H76.7l-3.73,3h3.42l.31,1.06-.89.85,3.79.12.58,1.37L75.92,42l-.21-1L73,40.39l-1.42-.79H68.39a63.11,63.11,0,0,1,79,3.7l-.75,1.34-2.92,1.14-1.23,1.34.28,1.56,1.51.21.91,2.27,2.6-1.25.43,2.83h-.78l-2.13-.11-2.37.5-2.29,3.28-3.27.54-.47,2.82,1.38.33-.4,1.8-3.25-.65-3,.65L131,63.59l.52,3.48,1.75.82h2.94l2-.18.6-1.58,3.1-4,2,.42,2-1.82.37,1.42,4.94,3.33-.6.81-2.23-.12.86,1.21,1.37.3,1.61-.67V65.08l.71-.36-.57-.61-3.3-1.86-.87-2.46h2.74l.88.89,2.36,2,.1,2.46,2.45,2.61.91-3.57,1.69-.92.32,2.92L161.29,68l3.3-.06c.64,1.64,1.21,3.55,1.71,5.26Z"/><path class="cls-1" d="M55.11,16l-2,1.27c-1.27.84-3.14,2-5.53,3.61l-4,3.06A47.57,47.57,0,0,0,39.1,27.7c-1.5,1.41-3.13,2.88-4.78,4.48l-4.87,5.39c-1.65,1.91-3.15,4.09-4.81,6.24a36.39,36.39,0,0,0-2.29,3.46L20.17,50.9c-1.46,2.5-2.69,5.21-4.09,7.9l-1.7,4.28a40.73,40.73,0,0,0-1.6,4.4,73.76,73.76,0,0,0-2.36,9.32c-.28,1.6-.64,3.19-.84,4.82s-.28,3.28-.42,4.93C9.11,87.38,9,88.2,9,89v2.5c.05,1.67,0,3.34.15,5l.65,5a22.83,22.83,0,0,0,.38,2.48l.6,2.44c.43,1.62.74,3.27,1.26,4.86l1.74,4.7a29.47,29.47,0,0,0,2.06,4.53c.78,1.49,1.44,2.9,2.31,4.44l2.59,4c1,1.31,2,2.6,3,3.89a65.91,65.91,0,0,0,6.55,6.84A69.85,69.85,0,0,0,44.92,149.8a79.48,79.48,0,0,0,14.82,5.64c2.4.52,4.66,1.17,6.87,1.46l3.22.52,3.06.3c.78.07,1.54.16,2.28.21h.59l2.68.08,2.46.07,2.24-.08c1.42-.06,2.69-.07,3.79-.16l2.79-.28,2.32-.23-2.33.13-2.79.16c-1.1.06-2.37,0-3.78,0H80.91l-2.45-.17-2.65-.19c-.91-.08-1.86-.24-2.83-.36l-3-.42-3.17-.68c-2.17-.37-4.37-1.11-6.7-1.72A78,78,0,0,1,45.88,148,67.51,67.51,0,0,1,32.2,137.65a63.42,63.42,0,0,1-6-6.77l-2.6-3.71-2.41-4.11c-2.64-5.45-5.18-11.36-6.12-17.56l-.47-2.3a22.72,22.72,0,0,1-.25-2.33L14,96.21c0-1.56,0-3.11.06-4.66V89.24a22.48,22.48,0,0,1,.26-2.3q.29-2.29.57-4.55c.25-1.5.66-3,1-4.44a67.55,67.55,0,0,1,2.55-8.52,35.71,35.71,0,0,1,1.65-4l1.73-3.89c1.41-2.44,2.65-4.9,4.09-7.15l2.24-3.27A32.8,32.8,0,0,1,30.4,48c1.63-1.92,3.09-3.87,4.69-5.57l4.69-4.77,4.59-3.88a40.44,40.44,0,0,1,4.15-3.17l3.57-2.56c2.37-1.46,4.34-2.58,5.64-3.36l2-1.18-4.62-7.45ZM92,157.57Z"/><path class="cls-10" d="M167.26,74.08h-5l-3.08-2.53-3.24.08v2.45h-1l-1.24-1L148,71.42V67.76l-7,.35-2.07,1h-2.82l-1.55.07-3.59,2.11v3.58l-6.83,5.07.75,2.18h1.42l-.37,2-1,.36L124.85,90l6,7.07h2.63l.16-1h4.73l1.36-1h2.68l1.47,1.45,4,.4-.53,5.31,4.44,7.83-2.34,4.47.37,2.1,2.05,1.83v5.06l2,3.25v4.28H156a64,64,0,0,1-49.09,23.36A63.27,63.27,0,0,1,43.68,91.13a67.87,67.87,0,0,1,5.18-24.82v-2L51,61.56c.79-1.48,1.57-2.93,2.47-4.34l.07,1.15L51,61.56c-.81,1.54-2.16,3.11-2.16,4.72v3.6l2,1.27v5l2.72,4.3,2.15.31L56,79.31l-2.39-3.69L53.2,72h1.42l.6,3.69,3.5,5.08-.9,1.64,2.38,3.4,5.67,1.36v-.89l2.06.31-.29,1.58,1.7.32,2.66.73,3.76,4.36,4.83.37.47,3.95-3.3,2.31-.16,3.52-.47,2.16,4.79,6,.37,2.05s1.6.47,1.82.47,3.76,2.79,3.76,2.79v10.83l1.45.37-.83,5,2.24,2.95-.39,5,2.92,5.07L97,149.72l3.77.07.37-1.21-2.77-2.33.16-1.16.5-1.42.11-1.45-1.89-.05L96.32,141l1.55-1.49.21-1.13-1.74-.5.1-1,2.47-.37,3.76-1.81,1.26-2.31,3.95-5-.9-3.95,1.21-2.1,3.63.11,2.44-1.93.79-7.62,2.71-3.44.47-2.21-2.47-.79-1.63-2.67-5.57-.06L104.14,101l-.21-3.15-1.48-2.58-4-.06L96.16,91.5l-2.05-1L94,91.61l-3.75.22-1.37-1.9L85,89.14l-3.21,3.71-5-.86-.4-5.68-3.68-.63,1.48-2.79-.43-1.58-4.84,3.2-3-.37-1.09-2.38.62-2.45,1.68-3.09,3.87-2h7.46V76.5l2.68,1.25-.21-3.89,1.93-1.95,3.9-2.56.27-1.8,3.89-4,4.14-2.29-.37-.3,2.79-2.6,1,.27.47.59L100,58l.26-.12-1.22-.16-1.19-.4V56.16l.73-.08H100l.63.06.57,1,.69-.21v-.1l.17.07,1.93-.3v-1l.87.28v1l-.56,1.15h0l.15.92,3.51,1h0l.81-.09.05-1.54L106,57.1l-.16-.74,2.31-.79.12-2.26-2.42-1.47-.11-3.53-3.31,1.79h-1.16l.32-3-4.66-1.15-2,1.33v4.3l-3.21,1.06-1.45,2.78-1.45.24V52.07l-3.09-.44-1.46-1-.65-2.3L89.26,45,92,44.14,92.26,46l1.54-.08.12-.93,1.61-.23v-.33l-.69-.29-.16-1,2-.17,1.19-1.24.07-.09h0l.42-.33,4.16-.52,1.84,1.52-4.82,2.57,6.13,1.34.79-2.16h2.68l.78-1.68L107.85,42V39.77l-5.77-2.63-4,.47-2.27,1.21L96,41.76l-2.41-.37-.37-1.63,2.32-2.1-4.21-.21-1.21.37-.52,1.42,1.58.27-.31,1.58-2.68.16-.42,1-3.89.11a10.66,10.66,0,0,0-.26-2.21l3,0,2.32-2.26-1.27-.63L86,38.84l-2.72-.29-1.68-2.48H78l-3.73,3h3.42L78,40.13l-.89.85,3.79.12.58,1.37-4.26-.16-.21-1-2.71-.61-1.42-.79H69.65a63.11,63.11,0,0,1,79,3.7l-.75,1.34L145,46.09l-1.23,1.34L144,49l1.51.21.91,2.27,2.6-1.25.43,2.83h-.78l-2.13-.11-2.37.5-2.29,3.28-3.27.54-.47,2.82,1.38.33-.4,1.8-3.25-.65-3,.65-.64,1.69.52,3.48,1.75.82h2.94l2-.18.6-1.58,3.1-4,2,.42,2-1.82.37,1.42,4.94,3.33-.6.81-2.23-.12.86,1.21,1.37.3,1.61-.67V65.39l.71-.36-.57-.61-3.3-1.86-.87-2.46h2.74l.88.89,2.36,2,.1,2.46L158,68.06l.91-3.57,1.69-.92.32,2.92,1.64,1.82,3.3-.06c.64,1.64,1.21,3.55,1.71,5.26Z"/><path class="cls-11" d="M26.29,89.91l63.55-7,13.37,77-63.55,7Z"/><path class="cls-12" d="M58.74,159.42l39.18-4.31"/><path class="cls-13" d="M29,91.15l59.36-6.81s9.05,74.25,4,79.38c-13.59-1.1-50.91,2.46-50.91,2.46Z"/><path class="cls-14" d="M49.07,90.81l53.25-.59.78,70.63-53.25.59Z"/><path class="cls-15" d="M66.54,156.44l32.84-.36"/><path class="cls-16" d="M49.07,90.81l49.85.47s4.9,70.65-.53,74.93c-12.6-2.33-48.45-4.74-48.45-4.74Z"/><text class="cls-17" transform="translate(53.01 138.46)">UR</text></svg>